<svg width="466.0" height="326.0"
  xmlns="http://www.w3.org/2000/svg" version="1.1"
  xmlns:xlink="http://www.w3.org/1999/xlink">

  <text style="font-size:15;font-family:Times;font-weight:bold;font-style:italic" x="38.0" y="35.0" xml:space="preserve" ><tspan x="38.0" y="35.0">Production:</tspan></text>
  <text style="font-size:13;font-family:Times;font-weight:normal;font-style:italic" x="38.0" y="71.0" xml:space="preserve" ><tspan x="38.0" y="71.0">Rules</tspan></text>
  <text style="font-size:13;font-family:Times;font-weight:normal;font-style:italic" x="147.0" y="71.0" xml:space="preserve" ><tspan x="147.0" y="71.0">Tree</tspan></text>
  <polyline fill="none" points="109 45 109 320" stroke="#000000" stroke-width="2" stroke-dasharray="2, 4" />
  <polyline fill="none" points="16 75 454 70" stroke="#000000" stroke-width="2" stroke-dasharray="2, 4" />
  <text style="font-size:10;font-family:Courier;font-weight:normal;font-style:normal" x="138.0" y="28.0" xml:space="preserve" ><tspan x="138.0" y="28.0">p19:Existencias</tspan></text>
  <image x="125.0" y="90.0" width="73" height="45" xlink:href="img_leftsymbol.gif" />
  <text style="font-size:10;font-family:Courier;font-weight:normal;font-style:normal" x="144.0" y="142.0" xml:space="preserve" ><tspan x="144.0" y="142.0">Existencias</tspan></text>
  <image x="310.0" y="150.0" width="37" height="29" xlink:href="img_syntAtt.gif" />
  <text style="font-size:10;font-family:Courier;font-weight:normal;font-style:normal" x="310.0" y="192.0" xml:space="preserve" ><tspan x="310.0" y="192.0">out_quantidade</tspan></text>
  <image x="320.0" y="90.0" width="37" height="29" xlink:href="img_syntAtt.gif" />
  <text style="font-size:10;font-family:Courier;font-weight:normal;font-style:normal" x="319.0" y="132.0" xml:space="preserve" ><tspan x="319.0" y="132.0">out_NPermanente</tspan></text>
  <image x="145.0" y="240.0" width="70" height="44" xlink:href="img_nonterminal.gif" />
  <text style="font-size:10;font-family:Courier;font-weight:normal;font-style:normal" x="162.0" y="292.0" xml:space="preserve" ><tspan x="162.0" y="292.0">Estado</tspan></text>
  <image x="290.0" y="240.0" width="37" height="29" xlink:href="img_syntAtt.gif" />
  <text style="font-size:10;font-family:Courier;font-weight:normal;font-style:normal" x="289.0" y="282.0" xml:space="preserve" ><tspan x="289.0" y="282.0">out_NPermanente</tspan></text>
  <polyline fill="none" points="249 136 305 153" stroke="#00ff00" stroke-dasharray="2, 4" />
  <polyline fill="none" points="249 117 315 114" stroke="#00ff00" stroke-dasharray="2, 4" />
  <polyline fill="none" points="187 146 186 240" stroke="#000000" />
  <polyline fill="none" points="227 267 285 265" stroke="#00ff00" stroke-dasharray="2, 4" />

  <defs>
  </defs>
</svg>
