<svg width="523.0" height="523.0"
  xmlns="http://www.w3.org/2000/svg" version="1.1"
  xmlns:xlink="http://www.w3.org/1999/xlink">

  <text style="font-size:15;font-family:Times;font-weight:bold;font-style:italic" x="47.0" y="35.0" xml:space="preserve" ><tspan x="47.0" y="35.0">Production:</tspan></text>
  <text style="font-size:13;font-family:Times;font-weight:normal;font-style:italic" x="45.0" y="71.0" xml:space="preserve" ><tspan x="45.0" y="71.0">Rules</tspan></text>
  <text style="font-size:13;font-family:Times;font-weight:normal;font-style:italic" x="167.0" y="71.0" xml:space="preserve" ><tspan x="167.0" y="71.0">Tree</tspan></text>
  <polyline fill="none" points="121 45 121 517" stroke="#000000" stroke-width="2" stroke-dasharray="2, 4" />
  <polyline fill="none" points="17 75 510 70" stroke="#000000" stroke-width="2" stroke-dasharray="2, 4" />
  <text style="font-size:10;font-family:Courier;font-weight:normal;font-style:normal" x="153.0" y="28.0" xml:space="preserve" ><tspan x="153.0" y="28.0">p1:Registos</tspan></text>
  <image x="238.0" y="100.0" width="73" height="45" xlink:href="img_leftsymbol.gif" />
  <text style="font-size:10;font-family:Courier;font-weight:normal;font-style:normal" x="258.0" y="152.0" xml:space="preserve" ><tspan x="258.0" y="152.0">Registos</tspan></text>
  <image x="350.0" y="90.0" width="37" height="29" xlink:href="img_syntAtt.gif" />
  <text style="font-size:10;font-family:Courier;font-weight:normal;font-style:normal" x="350.0" y="132.0" xml:space="preserve" ><tspan x="350.0" y="132.0">out_registos</tspan></text>
  <image x="238.0" y="380.0" width="70" height="44" xlink:href="img_nonterminal.gif" />
  <text style="font-size:10;font-family:Courier;font-weight:normal;font-style:normal" x="255.0" y="432.0" xml:space="preserve" ><tspan x="255.0" y="432.0">Registo</tspan></text>
  <image x="377.0" y="410.0" width="37" height="29" xlink:href="img_syntAtt.gif" />
  <text style="font-size:10;font-family:Courier;font-weight:normal;font-style:normal" x="376.0" y="452.0" xml:space="preserve" ><tspan x="376.0" y="452.0">out_NPermanente</tspan></text>
  <image x="373.0" y="290.0" width="37" height="29" xlink:href="img_syntAtt.gif" />
  <text style="font-size:10;font-family:Courier;font-weight:normal;font-style:normal" x="373.0" y="332.0" xml:space="preserve" ><tspan x="373.0" y="332.0">out_titulo</tspan></text>
  <image x="383.0" y="470.0" width="37" height="29" xlink:href="img_syntAtt.gif" />
  <text style="font-size:10;font-family:Courier;font-weight:normal;font-style:normal" x="382.0" y="512.0" xml:space="preserve" ><tspan x="382.0" y="512.0">out_isLivro</tspan></text>
  <image x="373.0" y="347.0" width="37" height="29" xlink:href="img_syntAtt.gif" />
  <text style="font-size:10;font-family:Courier;font-weight:normal;font-style:normal" x="372.0" y="389.0" xml:space="preserve" ><tspan x="372.0" y="389.0">out_registo</tspan></text>
  <polyline fill="none" points="334 122 345 120" stroke="#00ff00" stroke-dasharray="2, 4" />
  <polyline fill="none" points="332 415 372 422" stroke="#00ff00" stroke-dasharray="2, 4" />
  <polyline fill="none" points="324 380 386 336" stroke="#00ff00" stroke-dasharray="2, 4" />
  <polyline fill="none" points="332 435 392 470" stroke="#00ff00" stroke-dasharray="2, 4" />
  <polyline fill="none" points="332 395 368 385" stroke="#00ff00" stroke-dasharray="2, 4" />
  <polyline fill="none" points="286 156 285 380" stroke="#000000" />

  <defs>
  </defs>
</svg>
