<svg width="1033.0" height="506.0"
  xmlns="http://www.w3.org/2000/svg" version="1.1"
  xmlns:xlink="http://www.w3.org/1999/xlink">

  <text style="font-size:15;font-family:Times;font-weight:bold;font-style:italic" x="131.0" y="35.0" xml:space="preserve" ><tspan x="131.0" y="35.0">Production:</tspan></text>
  <text style="font-size:13;font-family:Times;font-weight:normal;font-style:italic" x="98.0" y="71.0" xml:space="preserve" ><tspan x="98.0" y="71.0">Rules</tspan></text>
  <text style="font-size:13;font-family:Times;font-weight:normal;font-style:italic" x="341.0" y="71.0" xml:space="preserve" ><tspan x="341.0" y="71.0">Tree</tspan></text>
  <polyline fill="none" points="233 45 233 500" stroke="#000000" stroke-width="2" stroke-dasharray="2, 4" />
  <polyline fill="none" points="24 75 1013 70" stroke="#000000" stroke-width="2" stroke-dasharray="2, 4" />
  <text style="font-size:10;font-family:Courier;font-weight:normal;font-style:normal" x="293.0" y="28.0" xml:space="preserve" ><tspan x="293.0" y="28.0">p2:Registos</tspan></text>
  <image x="457.0" y="100.0" width="73" height="45" xlink:href="img_leftsymbol.gif" />
  <text style="font-size:10;font-family:Courier;font-weight:normal;font-style:normal" x="477.0" y="152.0" xml:space="preserve" ><tspan x="477.0" y="152.0">Registos</tspan></text>
  <image x="612.0" y="100.0" width="37" height="29" xlink:href="img_syntAtt.gif" />
  <text style="font-size:10;font-family:Courier;font-weight:normal;font-style:normal" x="612.0" y="142.0" xml:space="preserve" ><tspan x="612.0" y="142.0">out_registos</tspan></text>
  <image x="257.0" y="307.0" width="70" height="44" xlink:href="img_nonterminal.gif" />
  <text style="font-size:10;font-family:Courier;font-weight:normal;font-style:normal" x="276.0" y="359.0" xml:space="preserve" ><tspan x="276.0" y="359.0">Registos</tspan></text>
  <image x="382.0" y="310.0" width="37" height="29" xlink:href="img_syntAtt.gif" />
  <text style="font-size:10;font-family:Courier;font-weight:normal;font-style:normal" x="382.0" y="352.0" xml:space="preserve" ><tspan x="382.0" y="352.0">out_registos</tspan></text>
  <image x="505.0" y="330.0" width="55" height="37" xlink:href="img_terminal.gif" />
  <text style="font-size:10;font-family:Courier;font-weight:normal;font-style:normal" x="518.0" y="382.0" xml:space="preserve" ><tspan x="518.0" y="382.0">','</tspan></text>
  <image x="627.0" y="310.0" width="70" height="44" xlink:href="img_nonterminal.gif" />
  <text style="font-size:10;font-family:Courier;font-weight:normal;font-style:normal" x="644.0" y="362.0" xml:space="preserve" ><tspan x="644.0" y="362.0">Registo</tspan></text>
  <image x="762.0" y="370.0" width="37" height="29" xlink:href="img_syntAtt.gif" />
  <text style="font-size:10;font-family:Courier;font-weight:normal;font-style:normal" x="761.0" y="412.0" xml:space="preserve" ><tspan x="761.0" y="412.0">out_NPermanente</tspan></text>
  <image x="642.0" y="410.0" width="37" height="29" xlink:href="img_syntAtt.gif" />
  <text style="font-size:10;font-family:Courier;font-weight:normal;font-style:normal" x="641.0" y="452.0" xml:space="preserve" ><tspan x="641.0" y="452.0">out_isLivro</tspan></text>
  <image x="692.0" y="240.0" width="37" height="29" xlink:href="img_syntAtt.gif" />
  <text style="font-size:10;font-family:Courier;font-weight:normal;font-style:normal" x="691.0" y="282.0" xml:space="preserve" ><tspan x="691.0" y="282.0">out_registo</tspan></text>
  <image x="762.0" y="300.0" width="37" height="29" xlink:href="img_syntAtt.gif" />
  <text style="font-size:10;font-family:Courier;font-weight:normal;font-style:normal" x="762.0" y="342.0" xml:space="preserve" ><tspan x="762.0" y="342.0">out_titulo</tspan></text>
  <polyline fill="none" points="553 127 607 124" stroke="#00ff00" stroke-dasharray="2, 4" />
  <polyline fill="none" points="361 335 377 333" stroke="#00ff00" stroke-dasharray="2, 4" />
  <polyline fill="none" points="479 156 335 307" stroke="#000000" />
  <polyline fill="none" points="508 156 527 330" stroke="#000000" />
  <polyline fill="none" points="721 354 763 370" stroke="#00ff00" stroke-dasharray="2, 4" />
  <polyline fill="none" points="679 366 687 410" stroke="#00ff00" stroke-dasharray="2, 4" />
  <polyline fill="none" points="699 310 721 286" stroke="#00ff00" stroke-dasharray="2, 4" />
  <polyline fill="none" points="721 333 757 328" stroke="#00ff00" stroke-dasharray="2, 4" />
  <polyline fill="none" points="527 156 652 310" stroke="#000000" />

  <defs>
  </defs>
</svg>
