<svg width="603.0" height="356.0"
  xmlns="http://www.w3.org/2000/svg" version="1.1"
  xmlns:xlink="http://www.w3.org/1999/xlink">

  <text style="font-size:15;font-family:Times;font-weight:bold;font-style:italic" x="60.0" y="35.0" xml:space="preserve" ><tspan x="60.0" y="35.0">Production:</tspan></text>
  <text style="font-size:13;font-family:Times;font-weight:normal;font-style:italic" x="53.0" y="71.0" xml:space="preserve" ><tspan x="53.0" y="71.0">Rules</tspan></text>
  <text style="font-size:13;font-family:Times;font-weight:normal;font-style:italic" x="194.0" y="71.0" xml:space="preserve" ><tspan x="194.0" y="71.0">Tree</tspan></text>
  <polyline fill="none" points="139 45 139 350" stroke="#000000" stroke-width="2" stroke-dasharray="2, 4" />
  <polyline fill="none" points="18 75 589 70" stroke="#000000" stroke-width="2" stroke-dasharray="2, 4" />
  <text style="font-size:10;font-family:Courier;font-weight:normal;font-style:normal" x="176.0" y="28.0" xml:space="preserve" ><tspan x="176.0" y="28.0">p21:Estado</tspan></text>
  <image x="217.0" y="90.0" width="73" height="45" xlink:href="img_leftsymbol.gif" />
  <text style="font-size:10;font-family:Courier;font-weight:normal;font-style:normal" x="237.0" y="142.0" xml:space="preserve" ><tspan x="237.0" y="142.0">Estado</tspan></text>
  <image x="432.0" y="100.0" width="37" height="29" xlink:href="img_syntAtt.gif" />
  <text style="font-size:10;font-family:Courier;font-weight:normal;font-style:normal" x="431.0" y="142.0" xml:space="preserve" ><tspan x="431.0" y="142.0">out_NPermanente</tspan></text>
  <image x="217.0" y="230.0" width="70" height="44" xlink:href="img_nonterminal.gif" />
  <text style="font-size:10;font-family:Courier;font-weight:normal;font-style:normal" x="240.0" y="282.0" xml:space="preserve" ><tspan x="240.0" y="282.0">CodigoBarras</tspan></text>
  <image x="437.0" y="210.0" width="70" height="44" xlink:href="img_nonterminal.gif" />
  <text style="font-size:10;font-family:Courier;font-weight:normal;font-style:normal" x="456.0" y="262.0" xml:space="preserve" ><tspan x="456.0" y="262.0">Disponib</tspan></text>
  <image x="452.0" y="300.0" width="37" height="29" xlink:href="img_syntAtt.gif" />
  <text style="font-size:10;font-family:Courier;font-weight:normal;font-style:normal" x="451.0" y="342.0" xml:space="preserve" ><tspan x="451.0" y="342.0">out_NPermanente</tspan></text>
  <polyline fill="none" points="295 118 427 122" stroke="#00ff00" stroke-dasharray="2, 4" />
  <polyline fill="none" points="263 146 284 230" stroke="#000000" />
  <polyline fill="none" points="295 138 437 211" stroke="#000000" />
  <polyline fill="none" points="499 266 511 300" stroke="#00ff00" stroke-dasharray="2, 4" />

  <defs>
  </defs>
</svg>
