<svg width="831.0" height="426.0"
  xmlns="http://www.w3.org/2000/svg" version="1.1"
  xmlns:xlink="http://www.w3.org/1999/xlink">

  <text style="font-size:15;font-family:Times;font-weight:bold;font-style:italic" x="98.0" y="35.0" xml:space="preserve" ><tspan x="98.0" y="35.0">Production:</tspan></text>
  <text style="font-size:13;font-family:Times;font-weight:normal;font-style:italic" x="76.0" y="71.0" xml:space="preserve" ><tspan x="76.0" y="71.0">Rules</tspan></text>
  <text style="font-size:13;font-family:Times;font-weight:normal;font-style:italic" x="271.0" y="71.0" xml:space="preserve" ><tspan x="271.0" y="71.0">Tree</tspan></text>
  <polyline fill="none" points="189 45 189 420" stroke="#000000" stroke-width="2" stroke-dasharray="2, 4" />
  <polyline fill="none" points="21 75 814 70" stroke="#000000" stroke-width="2" stroke-dasharray="2, 4" />
  <text style="font-size:10;font-family:Courier;font-weight:normal;font-style:normal" x="238.0" y="28.0" xml:space="preserve" ><tspan x="238.0" y="28.0">p20:Existencias</tspan></text>
  <image x="250.0" y="90.0" width="73" height="45" xlink:href="img_leftsymbol.gif" />
  <text style="font-size:10;font-family:Courier;font-weight:normal;font-style:normal" x="269.0" y="142.0" xml:space="preserve" ><tspan x="269.0" y="142.0">Existencias</tspan></text>
  <image x="479.0" y="100.0" width="37" height="29" xlink:href="img_syntAtt.gif" />
  <text style="font-size:10;font-family:Courier;font-weight:normal;font-style:normal" x="479.0" y="142.0" xml:space="preserve" ><tspan x="479.0" y="142.0">out_quantidade</tspan></text>
  <image x="465.0" y="160.0" width="37" height="29" xlink:href="img_syntAtt.gif" />
  <text style="font-size:10;font-family:Courier;font-weight:normal;font-style:normal" x="464.0" y="202.0" xml:space="preserve" ><tspan x="464.0" y="202.0">out_NPermanente</tspan></text>
  <image x="250.0" y="294.0" width="70" height="44" xlink:href="img_nonterminal.gif" />
  <text style="font-size:10;font-family:Courier;font-weight:normal;font-style:normal" x="271.0" y="346.0" xml:space="preserve" ><tspan x="271.0" y="346.0">Existencias</tspan></text>
  <image x="295.0" y="361.0" width="37" height="29" xlink:href="img_syntAtt.gif" />
  <text style="font-size:10;font-family:Courier;font-weight:normal;font-style:normal" x="295.0" y="403.0" xml:space="preserve" ><tspan x="295.0" y="403.0">out_quantidade</tspan></text>
  <image x="455.0" y="370.0" width="37" height="29" xlink:href="img_syntAtt.gif" />
  <text style="font-size:10;font-family:Courier;font-weight:normal;font-style:normal" x="454.0" y="412.0" xml:space="preserve" ><tspan x="454.0" y="412.0">out_NPermanente</tspan></text>
  <image x="430.0" y="290.0" width="55" height="37" xlink:href="img_terminal.gif" />
  <text style="font-size:10;font-family:Courier;font-weight:normal;font-style:normal" x="443.0" y="342.0" xml:space="preserve" ><tspan x="443.0" y="342.0">','</tspan></text>
  <image x="570.0" y="290.0" width="70" height="44" xlink:href="img_nonterminal.gif" />
  <text style="font-size:10;font-family:Courier;font-weight:normal;font-style:normal" x="587.0" y="342.0" xml:space="preserve" ><tspan x="587.0" y="342.0">Estado</tspan></text>
  <image x="685.0" y="300.0" width="37" height="29" xlink:href="img_syntAtt.gif" />
  <text style="font-size:10;font-family:Courier;font-weight:normal;font-style:normal" x="684.0" y="342.0" xml:space="preserve" ><tspan x="684.0" y="342.0">out_NPermanente</tspan></text>
  <polyline fill="none" points="374 119 474 122" stroke="#00ff00" stroke-dasharray="2, 4" />
  <polyline fill="none" points="374 136 460 162" stroke="#00ff00" stroke-dasharray="2, 4" />
  <polyline fill="none" points="336 350 344 361" stroke="#00ff00" stroke-dasharray="2, 4" />
  <polyline fill="none" points="388 346 455 370" stroke="#00ff00" stroke-dasharray="2, 4" />
  <polyline fill="none" points="312 146 319 294" stroke="#000000" />
  <polyline fill="none" points="332 146 435 290" stroke="#000000" />
  <polyline fill="none" points="652 319 680 321" stroke="#00ff00" stroke-dasharray="2, 4" />
  <polyline fill="none" points="354 146 570 291" stroke="#000000" />

  <defs>
  </defs>
</svg>
