<svg width="414.0" height="286.0"
  xmlns="http://www.w3.org/2000/svg" version="1.1"
  xmlns:xlink="http://www.w3.org/1999/xlink">

  <text style="font-size:15;font-family:Times;font-weight:bold;font-style:italic" x="29.0" y="35.0" xml:space="preserve" ><tspan x="29.0" y="35.0">Production:</tspan></text>
  <text style="font-size:13;font-family:Times;font-weight:normal;font-style:italic" x="33.0" y="71.0" xml:space="preserve" ><tspan x="33.0" y="71.0">Rules</tspan></text>
  <text style="font-size:13;font-family:Times;font-weight:normal;font-style:italic" x="130.0" y="71.0" xml:space="preserve" ><tspan x="130.0" y="71.0">Tree</tspan></text>
  <polyline fill="none" points="97 45 97 280" stroke="#000000" stroke-width="2" stroke-dasharray="2, 4" />
  <polyline fill="none" points="15 75 403 70" stroke="#000000" stroke-width="2" stroke-dasharray="2, 4" />
  <text style="font-size:10;font-family:Courier;font-weight:normal;font-style:normal" x="124.0" y="28.0" xml:space="preserve" ><tspan x="124.0" y="28.0">P25:Disponib</tspan></text>
  <image x="113.0" y="90.0" width="73" height="45" xlink:href="img_leftsymbol.gif" />
  <text style="font-size:10;font-family:Courier;font-weight:normal;font-style:normal" x="133.0" y="142.0" xml:space="preserve" ><tspan x="133.0" y="142.0">Disponib</tspan></text>
  <image x="268.0" y="100.0" width="37" height="29" xlink:href="img_syntAtt.gif" />
  <text style="font-size:10;font-family:Courier;font-weight:normal;font-style:normal" x="267.0" y="142.0" xml:space="preserve" ><tspan x="267.0" y="142.0">out_NPermanente</tspan></text>
  <image x="123.0" y="210.0" width="55" height="37" xlink:href="img_terminal.gif" />
  <text style="font-size:10;font-family:Courier;font-weight:normal;font-style:normal" x="132.0" y="262.0" xml:space="preserve" ><tspan x="132.0" y="262.0">RESERVADO</tspan></text>
  <image x="253.0" y="220.0" width="70" height="44" xlink:href="img_nonterminal.gif" />
  <text style="font-size:10;font-family:Courier;font-weight:normal;font-style:normal" x="270.0" y="272.0" xml:space="preserve" ><tspan x="270.0" y="272.0">DataDev</tspan></text>
  <polyline fill="none" points="209 119 263 121" stroke="#00ff00" stroke-dasharray="2, 4" />
  <polyline fill="none" points="163 146 169 210" stroke="#000000" />
  <polyline fill="none" points="191 146 270 220" stroke="#000000" />

  <defs>
  </defs>
</svg>
