<svg width="1632.0" height="546.0"
  xmlns="http://www.w3.org/2000/svg" version="1.1"
  xmlns:xlink="http://www.w3.org/1999/xlink">

  <text style="font-size:15;font-family:Times;font-weight:bold;font-style:italic" x="230.0" y="35.0" xml:space="preserve" ><tspan x="230.0" y="35.0">Production:</tspan></text>
  <text style="font-size:13;font-family:Times;font-weight:normal;font-style:italic" x="160.0" y="71.0" xml:space="preserve" ><tspan x="160.0" y="71.0">Rules</tspan></text>
  <text style="font-size:13;font-family:Times;font-weight:normal;font-style:italic" x="544.0" y="71.0" xml:space="preserve" ><tspan x="544.0" y="71.0">Tree</tspan></text>
  <polyline fill="none" points="364 45 364 540" stroke="#000000" stroke-width="2" stroke-dasharray="2, 4" />
  <polyline fill="none" points="32 75 1604 70" stroke="#000000" stroke-width="2" stroke-dasharray="2, 4" />
  <text style="font-size:10;font-family:Courier;font-weight:normal;font-style:normal" x="458.0" y="28.0" xml:space="preserve" ><tspan x="458.0" y="28.0">p4:Descricao</tspan></text>
  <image x="986.0" y="90.0" width="73" height="45" xlink:href="img_leftsymbol.gif" />
  <text style="font-size:10;font-family:Courier;font-weight:normal;font-style:normal" x="1005.0" y="142.0" xml:space="preserve" ><tspan x="1005.0" y="142.0">Descricao</tspan></text>
  <image x="1161.0" y="140.0" width="37" height="29" xlink:href="img_syntAtt.gif" />
  <text style="font-size:10;font-family:Courier;font-weight:normal;font-style:normal" x="1161.0" y="182.0" xml:space="preserve" ><tspan x="1161.0" y="182.0">out_titulo</tspan></text>
  <image x="1271.0" y="137.0" width="37" height="29" xlink:href="img_syntAtt.gif" />
  <text style="font-size:10;font-family:Courier;font-weight:normal;font-style:normal" x="1271.0" y="179.0" xml:space="preserve" ><tspan x="1271.0" y="179.0">out_referencia</tspan></text>
  <image x="1141.0" y="80.0" width="37" height="29" xlink:href="img_syntAtt.gif" />
  <text style="font-size:10;font-family:Courier;font-weight:normal;font-style:normal" x="1140.0" y="122.0" xml:space="preserve" ><tspan x="1140.0" y="122.0">out_isLivro</tspan></text>
  <image x="386.0" y="380.0" width="70" height="44" xlink:href="img_nonterminal.gif" />
  <text style="font-size:10;font-family:Courier;font-weight:normal;font-style:normal" x="407.0" y="432.0" xml:space="preserve" ><tspan x="407.0" y="432.0">Referencia</tspan></text>
  <image x="526.0" y="380.0" width="55" height="37" xlink:href="img_terminal.gif" />
  <text style="font-size:10;font-family:Courier;font-weight:normal;font-style:normal" x="539.0" y="432.0" xml:space="preserve" ><tspan x="539.0" y="432.0">':'</tspan></text>
  <image x="616.0" y="370.0" width="70" height="44" xlink:href="img_nonterminal.gif" />
  <text style="font-size:10;font-family:Courier;font-weight:normal;font-style:normal" x="635.0" y="422.0" xml:space="preserve" ><tspan x="635.0" y="422.0">Catalogo</tspan></text>
  <image x="746.0" y="380.0" width="55" height="37" xlink:href="img_terminal.gif" />
  <text style="font-size:10;font-family:Courier;font-weight:normal;font-style:normal" x="759.0" y="432.0" xml:space="preserve" ><tspan x="759.0" y="432.0">'-'</tspan></text>
  <image x="836.0" y="380.0" width="70" height="44" xlink:href="img_nonterminal.gif" />
  <text style="font-size:10;font-family:Courier;font-weight:normal;font-style:normal" x="851.0" y="432.0" xml:space="preserve" ><tspan x="851.0" y="432.0">Tipo</tspan></text>
  <image x="936.0" y="380.0" width="55" height="37" xlink:href="img_terminal.gif" />
  <text style="font-size:10;font-family:Courier;font-weight:normal;font-style:normal" x="949.0" y="432.0" xml:space="preserve" ><tspan x="949.0" y="432.0">'-'</tspan></text>
  <image x="1026.0" y="380.0" width="70" height="44" xlink:href="img_nonterminal.gif" />
  <text style="font-size:10;font-family:Courier;font-weight:normal;font-style:normal" x="1043.0" y="432.0" xml:space="preserve" ><tspan x="1043.0" y="432.0">Titulo</tspan></text>
  <image x="1136.0" y="380.0" width="55" height="37" xlink:href="img_terminal.gif" />
  <text style="font-size:10;font-family:Courier;font-weight:normal;font-style:normal" x="1149.0" y="432.0" xml:space="preserve" ><tspan x="1149.0" y="432.0">'('</tspan></text>
  <image x="1216.0" y="380.0" width="70" height="44" xlink:href="img_nonterminal.gif" />
  <text style="font-size:10;font-family:Courier;font-weight:normal;font-style:normal" x="1231.0" y="432.0" xml:space="preserve" ><tspan x="1231.0" y="432.0">Autor</tspan></text>
  <image x="1298.0" y="380.0" width="55" height="37" xlink:href="img_terminal.gif" />
  <text style="font-size:10;font-family:Courier;font-weight:normal;font-style:normal" x="1311.0" y="432.0" xml:space="preserve" ><tspan x="1311.0" y="432.0">')'</tspan></text>
  <image x="1376.0" y="380.0" width="70" height="44" xlink:href="img_nonterminal.gif" />
  <text style="font-size:10;font-family:Courier;font-weight:normal;font-style:normal" x="1393.0" y="432.0" xml:space="preserve" ><tspan x="1393.0" y="432.0">Editora</tspan></text>
  <image x="1480.0" y="380.0" width="55" height="37" xlink:href="img_terminal.gif" />
  <text style="font-size:10;font-family:Courier;font-weight:normal;font-style:normal" x="1493.0" y="432.0" xml:space="preserve" ><tspan x="1493.0" y="432.0">'-'</tspan></text>
  <image x="1556.0" y="380.0" width="70" height="44" xlink:href="img_nonterminal.gif" />
  <text style="font-size:10;font-family:Courier;font-weight:normal;font-style:normal" x="1574.0" y="432.0" xml:space="preserve" ><tspan x="1574.0" y="432.0">Ano</tspan></text>
  <image x="841.0" y="480.0" width="37" height="29" xlink:href="img_syntAtt.gif" />
  <text style="font-size:10;font-family:Courier;font-weight:normal;font-style:normal" x="840.0" y="522.0" xml:space="preserve" ><tspan x="840.0" y="522.0">out_isLivro</tspan></text>
  <polyline fill="none" points="1092 132 1156 150" stroke="#00ff00" stroke-dasharray="2, 4" />
  <polyline fill="none" points="1092 125 1266 151" stroke="#00ff00" stroke-dasharray="2, 4" />
  <polyline fill="none" points="1092 113 1136 108" stroke="#00ff00" stroke-dasharray="2, 4" />
  <polyline fill="none" points="986 144 506 380" stroke="#000000" />
  <polyline fill="none" points="992 146 576 394" stroke="#000000" />
  <polyline fill="none" points="1002 146 705 370" stroke="#000000" />
  <polyline fill="none" points="1013 146 796 381" stroke="#000000" />
  <polyline fill="none" points="1022 146 883 380" stroke="#000000" />
  <polyline fill="none" points="1032 146 968 380" stroke="#000000" />
  <polyline fill="none" points="1041 146 1065 380" stroke="#000000" />
  <polyline fill="none" points="1050 146 1150 380" stroke="#000000" />
  <polyline fill="none" points="1059 146 1232 380" stroke="#000000" />
  <polyline fill="none" points="1066 146 1298 383" stroke="#000000" />
  <polyline fill="none" points="1076 146 1386 380" stroke="#000000" />
  <polyline fill="none" points="1084 146 1480 393" stroke="#000000" />
  <polyline fill="none" points="1092 146 1556 393" stroke="#000000" />
  <polyline fill="none" points="873 436 885 480" stroke="#00ff00" stroke-dasharray="2, 4" />

  <defs>
  </defs>
</svg>
